<?xml version="1.0" encoding="utf-8"?>
<!-- Generator: Adobe Illustrator 22.1.0, SVG Export Plug-In . SVG Version: 6.00 Build 0)  -->
<svg version="1.1" id="레이어_1" xmlns="http://www.w3.org/2000/svg" xmlns:xlink="http://www.w3.org/1999/xlink" x="0px"
	 y="0px" viewBox="0 0 14 13" style="enable-background:new 0 0 14 13;" xml:space="preserve">
<style type="text/css">
	.st0{fill:#69737A;}
</style>
<title>❎</title>
<desc>Created with Sketch.</desc>
<g id="Page-1">
	<g id="KSH-Theme-Setting" transform="translate(-847.000000, -397.000000)">
		<g id="Group-7" transform="translate(570.000000, 387.000000)">
			<path id="_x274E_" class="st0" d="M288.4,10c0.4,0,0.8,0.2,1.1,0.5c0.3,0.3,0.5,0.7,0.5,1.1v9.6c0,0.4-0.2,0.8-0.5,1.1
				c-0.3,0.3-0.7,0.5-1.1,0.5h-9.6c-0.4,0-0.8-0.2-1.1-0.5s-0.5-0.7-0.5-1.1v-9.6c0-0.4,0.2-0.8,0.5-1.1c0.3-0.3,0.7-0.5,1.1-0.5
				H288.4z M286.1,20.2l1.4-1.4l-2.5-2.4l2.5-2.5l-1.4-1.4l-2.5,2.4l-2.4-2.4l-1.4,1.4l2.5,2.5l-2.5,2.4l1.4,1.4l2.4-2.4L286.1,20.2
				z"/>
		</g>
	</g>
</g>
</svg>
