<?xml version="1.0" encoding="UTF-8"?>
<svg width="14px" height="13px" viewBox="0 0 14 13" version="1.1" xmlns="http://www.w3.org/2000/svg" xmlns:xlink="http://www.w3.org/1999/xlink">
    <!-- Generator: Sketch 43.2 (39069) - http://www.bohemiancoding.com/sketch -->
    <title>❎</title>
    <desc>Created with Sketch.</desc>
    <defs></defs>
    <g id="Page-1" stroke="none" stroke-width="1" fill="none" fill-rule="evenodd">
        <g id="KSH-Theme-Setting" transform="translate(-847.000000, -397.000000)" fill="#1F72A6">
            <g id="Group-7" transform="translate(570.000000, 387.000000)">
                <path d="M288.44,10 C288.888002,10 289.266665,10.1546651 289.576,10.464 C289.885335,10.7733349 290.04,11.1519978 290.04,11.6 L290.04,21.2 C290.04,21.6373355 289.882668,22.0133318 289.568,22.328 C289.253332,22.6426682 288.877336,22.8 288.44,22.8 L278.84,22.8 C278.413331,22.8 278.040002,22.6400016 277.72,22.32 C277.399998,21.9999984 277.24,21.6266688 277.24,21.2 L277.24,11.6 C277.24,11.1626645 277.397332,10.7866682 277.712,10.472 C278.026668,10.1573318 278.402664,10 278.84,10 L288.44,10 Z M286.104,20.208 L287.48,18.832 L285.016,16.4 L287.48,13.936 L286.104,12.56 L283.64,14.992 L281.208,12.56 L279.8,13.936 L282.264,16.4 L279.8,18.832 L281.208,20.208 L283.64,17.776 L286.104,20.208 Z" id="❎"></path>
            </g>
        </g>
    </g>
</svg>