<?xml version="1.0" encoding="UTF-8"?>
<svg width="36px" height="36px" viewBox="0 0 36 36" version="1.1" xmlns="http://www.w3.org/2000/svg" xmlns:xlink="http://www.w3.org/1999/xlink">
    <!-- Generator: Sketch 43.2 (39069) - http://www.bohemiancoding.com/sketch -->
    <title>Group 4</title>
    <desc>Created with Sketch.</desc>
    <defs></defs>
    <g id="Page-1" stroke="none" stroke-width="1" fill="none" fill-rule="evenodd">
        <g id="KSH-Dashboard" transform="translate(-1011.000000, -14.000000)">
            <g id="Group-4" transform="translate(1011.000000, 14.000000)">
                <rect id="Rectangle-7" fill="#343A3D" x="0" y="0" width="36" height="36"></rect>
                <path d="M36,35.7042553 L36,35.4085106 C36,34.1319085 33.3957707,32.5744773 28.187234,30.7361702 C25.8127541,29.8425487 24.1914937,28.9617065 23.3234043,28.093617 C22.4297828,27.1999955 21.9829787,25.9872417 21.9829787,24.4553191 C21.9829787,23.8936142 22.2765928,23.2808544 22.8638298,22.6170213 C23.4765988,21.9276561 23.8723395,20.9829847 24.0510638,19.7829787 C24.12766,19.2468058 24.421274,18.9148943 24.9319149,18.787234 C25.3914917,18.6595738 25.6851057,17.893624 25.812766,16.4893617 C25.812766,15.6212723 25.582981,15.0851074 25.1234043,14.8808511 L25.5829787,11.5106383 C25.736171,10.131908 25.2255378,8.70213506 24.0510638,7.2212766 C22.8765899,5.74041813 20.8595888,5 18,5 C15.1404112,5 13.136176,5.74041813 11.987234,7.2212766 C10.8382921,8.72766711 10.3148931,10.15744 10.4170213,11.5106383 C10.5446815,12.5829841 10.6978714,13.7063771 10.8765957,14.8808511 L10.7234043,15.0340426 C10.3659557,15.1872348 10.187234,15.6723363 10.187234,16.4893617 C10.3148943,17.893624 10.6085083,18.6595738 11.0680851,18.787234 C11.578726,18.9148943 11.87234,19.2468058 11.9489362,19.7829787 C12.2297886,20.9829847 12.6382952,21.9148903 13.1744681,22.5787234 C13.736173,23.2425565 14.0170213,23.8680822 14.0170213,24.4553191 C14.0170213,26.0127737 13.5829831,27.2255276 12.7148936,28.093617 C11.8212721,28.9872385 10.1872459,29.8680808 7.81276596,30.7361702 C2.60422928,32.5744773 0,34.1319085 0,35.4085106 L0,35.7042553 L0,36 L36,36 L36,35.7042553 Z" id="Combined-Shape" fill="#4D5356"></path>
            </g>
        </g>
    </g>
</svg>