<?xml version="1.0" encoding="utf-8"?>
<!-- Generator: Adobe Illustrator 22.1.0, SVG Export Plug-In . SVG Version: 6.00 Build 0)  -->
<svg version="1.1" id="레이어_1" xmlns="http://www.w3.org/2000/svg" xmlns:xlink="http://www.w3.org/1999/xlink" x="0px"
	 y="0px" viewBox="0 0 36 36" style="enable-background:new 0 0 36 36;" xml:space="preserve">
<style type="text/css">
	.st0{fill:#E4E4E4;}
	.st1{fill:#BFC5C9;}
</style>
<title>Group 4</title>
<desc>Created with Sketch.</desc>
<g id="Page-1">
	<g id="KSH-Dashboard" transform="translate(-1011.000000, -14.000000)">
		<g id="Group-4" transform="translate(1011.000000, 14.000000)">
			<rect id="Rectangle-7" y="0" class="st0" width="36" height="36"/>
			<path id="Combined-Shape" class="st1" d="M36,35.7v-0.3c0-1.3-2.6-2.8-7.8-4.7c-2.4-0.9-4-1.8-4.9-2.6C22.4,27.2,22,26,22,24.5
				c0-0.6,0.3-1.2,0.9-1.8c0.6-0.7,1-1.6,1.2-2.8c0.1-0.5,0.4-0.9,0.9-1c0.5-0.1,0.8-0.9,0.9-2.3c0-0.9-0.2-1.4-0.7-1.6l0.5-3.4
				c0.2-1.4-0.4-2.8-1.5-4.3C22.9,5.7,20.9,5,18,5s-4.9,0.7-6,2.2c-1.1,1.5-1.7,2.9-1.6,4.3c0.1,1.1,0.3,2.2,0.5,3.4L10.7,15
				c-0.4,0.2-0.5,0.6-0.5,1.5c0.1,1.4,0.4,2.2,0.9,2.3c0.5,0.1,0.8,0.5,0.9,1c0.3,1.2,0.7,2.1,1.2,2.8c0.6,0.7,0.8,1.3,0.8,1.9
				c0,1.6-0.4,2.8-1.3,3.6c-0.9,0.9-2.5,1.8-4.9,2.6C2.6,32.6,0,34.1,0,35.4v0.3V36h36V35.7z"/>
		</g>
	</g>
</g>
</svg>
